<svg width="27" height="18" viewBox="0 0 27 18" fill="none" xmlns="http://www.w3.org/2000/svg">
<g filter="url(#filter0_d_407_8915)">
<path fill-rule="evenodd" clip-rule="evenodd" d="M19.1874 2.07452C19.5372 2.0224 19.7785 1.6966 19.7264 1.34682L19.7263 1.34663L23.3022 0.813807C23.8019 0.739351 24.2673 1.08407 24.3418 1.58375L24.6658 3.75827C23.5947 4.43342 22.965 5.69842 23.1636 7.0311C23.3622 8.36378 24.3333 9.39027 25.5547 9.7238L25.8652 11.8075C25.9396 12.3072 25.5949 12.7726 25.0952 12.8471L21.5205 13.3797C21.4683 13.0301 21.1426 12.7889 20.7929 12.841C20.4432 12.8931 20.2019 13.2188 20.2539 13.5684L3.69778 16.0354C3.1981 16.1099 2.73266 15.7651 2.65821 15.2655L2.36091 13.2703C3.5585 12.6343 4.28443 11.2933 4.0732 9.87569C3.86197 8.45808 2.77661 7.38694 1.44565 7.12777L1.13481 5.04172C1.06036 4.54204 1.40507 4.0766 1.90476 4.00215L18.4597 1.53537L18.4597 1.53556C18.5118 1.88534 18.8376 2.12664 19.1874 2.07452ZM19.4495 2.59034C19.4346 2.4904 19.3416 2.42146 19.2416 2.43635C19.1417 2.45124 19.0727 2.54433 19.0876 2.64426L19.1396 2.99324C19.1545 3.09318 19.2476 3.16212 19.3475 3.14723C19.4475 3.13234 19.5164 3.03925 19.5015 2.93931L19.4495 2.59034ZM19.6055 3.63727C19.5906 3.53733 19.4976 3.46839 19.3976 3.48328C19.2977 3.49817 19.2287 3.59126 19.2436 3.69119L19.3476 4.38915C19.3625 4.48908 19.4556 4.55803 19.5555 4.54314C19.6555 4.52825 19.7244 4.43516 19.7095 4.33522L19.6055 3.63727ZM19.8135 5.03318C19.7986 4.93324 19.7056 4.8643 19.6056 4.87919C19.5057 4.89408 19.4367 4.98717 19.4516 5.0871L19.5556 5.78506C19.5705 5.88499 19.6636 5.95394 19.7635 5.93904C19.8635 5.92415 19.9324 5.83107 19.9175 5.73113L19.8135 5.03318ZM20.0215 6.42908C20.0066 6.32915 19.9136 6.26021 19.8136 6.2751C19.7137 6.28999 19.6447 6.38307 19.6596 6.48301L19.7636 7.18096C19.7785 7.2809 19.8716 7.34984 19.9715 7.33495C20.0715 7.32006 20.1404 7.22698 20.1255 7.12704L20.0215 6.42908ZM20.2295 7.82499C20.2146 7.72506 20.1215 7.65611 20.0216 7.671C19.9217 7.6859 19.8527 7.77898 19.8676 7.87892L19.9716 8.57687C19.9865 8.67681 20.0796 8.74575 20.1795 8.73086C20.2795 8.71597 20.3484 8.62288 20.3335 8.52295L20.2295 7.82499ZM20.4375 9.2209C20.4226 9.12097 20.3295 9.05202 20.2296 9.06691C20.1297 9.0818 20.0607 9.17489 20.0756 9.27483L20.1796 9.97278C20.1945 10.0727 20.2876 10.1417 20.3875 10.1268C20.4875 10.1119 20.5564 10.0188 20.5415 9.91886L20.4375 9.2209ZM20.6455 10.6168C20.6306 10.5169 20.5375 10.4479 20.4376 10.4628C20.3377 10.4777 20.2687 10.5708 20.2836 10.6707L20.3876 11.3687C20.4025 11.4686 20.4956 11.5376 20.5955 11.5227C20.6955 11.5078 20.7644 11.4147 20.7495 11.3148L20.6455 10.6168ZM20.8535 12.0127C20.8386 11.9128 20.7455 11.8438 20.6456 11.8587C20.5457 11.8736 20.4767 11.9667 20.4916 12.0666L20.5436 12.4156C20.5585 12.5156 20.6516 12.5845 20.7515 12.5696C20.8515 12.5547 20.9204 12.4616 20.9055 12.3617L20.8535 12.0127Z" fill="#FFD980"/>
<path d="M19.7263 1.34663L19.7196 1.3014L19.6744 1.30814L19.6811 1.35337L19.7263 1.34663ZM23.3022 0.813807L23.2955 0.768569L23.3022 0.813807ZM24.6658 3.75827L24.6902 3.79697L24.7154 3.78105L24.711 3.75153L24.6658 3.75827ZM25.5547 9.7238L25.5999 9.71706L25.5955 9.68754L25.5668 9.67968L25.5547 9.7238ZM25.0952 12.8471L25.102 12.8923L25.0952 12.8471ZM21.5205 13.3797L21.4753 13.3865L21.4821 13.4317L21.5273 13.4249L21.5205 13.3797ZM20.2539 13.5684L20.2606 13.6137L20.3058 13.6069L20.2991 13.5617L20.2539 13.5684ZM2.36091 13.2703L2.33946 13.2299L2.31091 13.245L2.31568 13.277L2.36091 13.2703ZM1.44565 7.12777L1.40041 7.13451L1.40517 7.16648L1.4369 7.17266L1.44565 7.12777ZM1.13481 5.04172L1.18005 5.03498L1.13481 5.04172ZM1.90476 4.00215L1.9115 4.04739L1.90476 4.00215ZM18.4597 1.53537L18.5049 1.52863L18.4982 1.48339L18.4529 1.49013L18.4597 1.53537ZM18.4597 1.53556L18.4145 1.5423L18.4597 1.53556ZM19.4495 2.59034L19.4043 2.59708L19.4495 2.59034ZM19.3475 3.14723L19.3408 3.10199L19.3475 3.14723ZM19.5015 2.93931L19.5468 2.93257L19.5015 2.93931ZM19.4516 5.0871L19.4064 5.09384L19.4516 5.0871ZM19.5556 5.78506L19.6009 5.77832L19.5556 5.78506ZM20.4375 9.2209L20.4828 9.21416L20.4375 9.2209ZM20.5415 9.91886L20.4963 9.9256L20.5415 9.91886ZM20.6455 10.6168L20.6003 10.6236L20.6455 10.6168ZM20.7495 11.3148L20.7948 11.308L20.7495 11.3148ZM20.4916 12.0666L20.5369 12.0599L20.4916 12.0666ZM20.5436 12.4156L20.4984 12.4224L20.5436 12.4156ZM19.6811 1.35356C19.7295 1.67835 19.5055 1.98088 19.1807 2.02928L19.1941 2.11975C19.5689 2.06391 19.8274 1.71484 19.7716 1.34008L19.6811 1.35356ZM19.6811 1.35337L19.6811 1.35356L19.7716 1.34008L19.7716 1.33989L19.6811 1.35337ZM23.2955 0.768569L19.7196 1.3014L19.7331 1.39187L23.309 0.859045L23.2955 0.768569ZM24.387 1.57701C24.3088 1.05234 23.8201 0.690391 23.2955 0.768569L23.309 0.859045C23.7837 0.788312 24.2258 1.11579 24.2966 1.59049L24.387 1.57701ZM24.711 3.75153L24.387 1.57701L24.2966 1.59049L24.6206 3.76501L24.711 3.75153ZM23.2088 7.02436C23.013 5.71026 23.6338 4.46279 24.6902 3.79697L24.6414 3.71958C23.5555 4.40404 22.917 5.68658 23.1183 7.03784L23.2088 7.02436ZM25.5668 9.67968C24.3622 9.35075 23.4046 8.33846 23.2088 7.02436L23.1183 7.03784C23.3197 8.38911 24.3044 9.42979 25.5427 9.76793L25.5668 9.67968ZM25.9104 11.8007L25.5999 9.71706L25.5095 9.73054L25.8199 11.8142L25.9104 11.8007ZM25.102 12.8923C25.6267 12.8141 25.9886 12.3254 25.9104 11.8007L25.8199 11.8142C25.8907 12.2889 25.5632 12.7311 25.0885 12.8018L25.102 12.8923ZM21.5273 13.4249L25.102 12.8923L25.0885 12.8018L21.5138 13.3345L21.5273 13.4249ZM20.7996 12.8862C21.1243 12.8378 21.4268 13.0618 21.4753 13.3865L21.5658 13.373C21.5098 12.9983 21.1608 12.7399 20.7861 12.7957L20.7996 12.8862ZM20.2991 13.5617C20.2509 13.237 20.4749 12.9346 20.7996 12.8862L20.7861 12.7957C20.4115 12.8516 20.153 13.2005 20.2086 13.5752L20.2991 13.5617ZM3.70452 16.0806L20.2606 13.6137L20.2471 13.5232L3.69104 15.9902L3.70452 16.0806ZM2.61297 15.2722C2.69115 15.7969 3.17985 16.1588 3.70452 16.0806L3.69104 15.9902C3.21634 16.0609 2.77418 15.7334 2.70345 15.2587L2.61297 15.2722ZM2.31568 13.277L2.61297 15.2722L2.70345 15.2587L2.40615 13.2635L2.31568 13.277ZM4.02796 9.88243C4.23625 11.2803 3.52048 12.6027 2.33946 13.2299L2.38237 13.3107C3.59653 12.6659 4.33261 11.3063 4.11844 9.86895L4.02796 9.88243ZM1.4369 7.17266C2.74945 7.42824 3.81967 8.48458 4.02796 9.88243L4.11844 9.86895C3.90426 8.43158 2.80377 7.34563 1.45439 7.08287L1.4369 7.17266ZM1.08958 5.04846L1.40041 7.13451L1.49088 7.12103L1.18005 5.03498L1.08958 5.04846ZM1.89802 3.95691C1.37335 4.03509 1.0114 4.52379 1.08958 5.04846L1.18005 5.03498C1.10932 4.56028 1.4368 4.11812 1.9115 4.04739L1.89802 3.95691ZM18.4529 1.49013L1.89802 3.95691L1.9115 4.04739L18.4664 1.58061L18.4529 1.49013ZM18.5049 1.52882L18.5049 1.52863L18.4144 1.54211L18.4145 1.5423L18.5049 1.52882ZM19.1807 2.02928C18.8559 2.07768 18.5533 1.85361 18.5049 1.52882L18.4145 1.5423C18.4703 1.91706 18.8194 2.1756 19.1941 2.11975L19.1807 2.02928ZM19.2484 2.48159C19.3233 2.47042 19.3931 2.52212 19.4043 2.59708L19.4948 2.5836C19.4762 2.45868 19.3598 2.3725 19.2349 2.39111L19.2484 2.48159ZM19.1329 2.63752C19.1217 2.56257 19.1734 2.49275 19.2484 2.48159L19.2349 2.39111C19.11 2.40972 19.0238 2.52608 19.0424 2.651L19.1329 2.63752ZM19.1849 2.9865L19.1329 2.63752L19.0424 2.651L19.0944 2.99998L19.1849 2.9865ZM19.3408 3.10199C19.2659 3.11316 19.196 3.06145 19.1849 2.9865L19.0944 2.99998C19.113 3.1249 19.2294 3.21108 19.3543 3.19247L19.3408 3.10199ZM19.4563 2.94605C19.4675 3.02101 19.4158 3.09082 19.3408 3.10199L19.3543 3.19247C19.4792 3.17385 19.5654 3.05749 19.5468 2.93257L19.4563 2.94605ZM19.4043 2.59708L19.4563 2.94605L19.5468 2.93257L19.4948 2.5836L19.4043 2.59708ZM19.4044 3.52852C19.4793 3.51735 19.5491 3.56906 19.5603 3.64401L19.6508 3.63053C19.6322 3.50561 19.5158 3.41943 19.3909 3.43804L19.4044 3.52852ZM19.2889 3.68445C19.2777 3.6095 19.3294 3.53969 19.4044 3.52852L19.3909 3.43804C19.266 3.45666 19.1798 3.57301 19.1984 3.69793L19.2889 3.68445ZM19.3929 4.38241L19.2889 3.68445L19.1984 3.69793L19.3024 4.39589L19.3929 4.38241ZM19.5488 4.4979C19.4738 4.50907 19.404 4.45736 19.3929 4.38241L19.3024 4.39589C19.321 4.52081 19.4374 4.60699 19.5623 4.58837L19.5488 4.4979ZM19.6643 4.34196C19.6755 4.41692 19.6238 4.48673 19.5488 4.4979L19.5623 4.58837C19.6872 4.56976 19.7734 4.4534 19.7548 4.32848L19.6643 4.34196ZM19.5603 3.64401L19.6643 4.34196L19.7548 4.32848L19.6508 3.63053L19.5603 3.64401ZM19.6124 4.92443C19.6873 4.91326 19.7571 4.96496 19.7683 5.03992L19.8588 5.02644C19.8402 4.90152 19.7238 4.81534 19.5989 4.83395L19.6124 4.92443ZM19.4969 5.08036C19.4857 5.00541 19.5374 4.93559 19.6124 4.92443L19.5989 4.83395C19.474 4.85256 19.3878 4.96892 19.4064 5.09384L19.4969 5.08036ZM19.6009 5.77832L19.4969 5.08036L19.4064 5.09384L19.5104 5.7918L19.6009 5.77832ZM19.7568 5.89381C19.6818 5.90498 19.612 5.85327 19.6009 5.77832L19.5104 5.7918C19.529 5.91672 19.6454 6.0029 19.7703 5.98428L19.7568 5.89381ZM19.8723 5.73787C19.8835 5.81282 19.8318 5.88264 19.7568 5.89381L19.7703 5.98428C19.8952 5.96567 19.9814 5.84931 19.9628 5.72439L19.8723 5.73787ZM19.7683 5.03992L19.8723 5.73787L19.9628 5.72439L19.8588 5.02644L19.7683 5.03992ZM19.8204 6.32033C19.8953 6.30917 19.9651 6.36087 19.9763 6.43583L20.0668 6.42234C20.0482 6.29742 19.9318 6.21124 19.8069 6.22986L19.8204 6.32033ZM19.7049 6.47627C19.6937 6.40132 19.7454 6.3315 19.8204 6.32033L19.8069 6.22986C19.682 6.24847 19.5958 6.36483 19.6144 6.48975L19.7049 6.47627ZM19.8089 7.17422L19.7049 6.47627L19.6144 6.48975L19.7184 7.18771L19.8089 7.17422ZM19.9648 7.28971C19.8898 7.30088 19.82 7.24918 19.8089 7.17422L19.7184 7.18771C19.737 7.31263 19.8534 7.3988 19.9783 7.38019L19.9648 7.28971ZM20.0803 7.13378C20.0915 7.20873 20.0398 7.27855 19.9648 7.28971L19.9783 7.38019C20.1032 7.36158 20.1894 7.24522 20.1708 7.1203L20.0803 7.13378ZM19.9763 6.43583L20.0803 7.13378L20.1708 7.1203L20.0668 6.42234L19.9763 6.43583ZM20.0284 7.71624C20.1033 7.70507 20.1731 7.75678 20.1843 7.83173L20.2748 7.81825C20.2562 7.69333 20.1398 7.60715 20.0149 7.62577L20.0284 7.71624ZM19.9129 7.87218C19.9017 7.79723 19.9534 7.72741 20.0284 7.71624L20.0149 7.62577C19.89 7.64438 19.8038 7.76074 19.8224 7.88566L19.9129 7.87218ZM20.0169 8.57013L19.9129 7.87218L19.8224 7.88566L19.9264 8.58361L20.0169 8.57013ZM20.1728 8.68562C20.0978 8.69679 20.028 8.64508 20.0169 8.57013L19.9264 8.58361C19.945 8.70853 20.0614 8.79471 20.1863 8.7761L20.1728 8.68562ZM20.2883 8.52969C20.2995 8.60464 20.2478 8.67446 20.1728 8.68562L20.1863 8.7761C20.3112 8.75749 20.3974 8.64113 20.3788 8.51621L20.2883 8.52969ZM20.1843 7.83173L20.2883 8.52969L20.3788 8.51621L20.2748 7.81825L20.1843 7.83173ZM20.2364 9.11215C20.3113 9.10098 20.3811 9.15269 20.3923 9.22764L20.4828 9.21416C20.4641 9.08924 20.3478 9.00306 20.2229 9.02168L20.2364 9.11215ZM20.1209 9.26809C20.1097 9.19313 20.1614 9.12332 20.2364 9.11215L20.2229 9.02168C20.098 9.04029 20.0118 9.15665 20.0304 9.28157L20.1209 9.26809ZM20.2249 9.96604L20.1209 9.26809L20.0304 9.28157L20.1344 9.97952L20.2249 9.96604ZM20.3808 10.0815C20.3058 10.0927 20.236 10.041 20.2249 9.96604L20.1344 9.97952C20.153 10.1044 20.2694 10.1906 20.3943 10.172L20.3808 10.0815ZM20.4963 9.9256C20.5075 10.0006 20.4557 10.0704 20.3808 10.0815L20.3943 10.172C20.5192 10.1534 20.6054 10.037 20.5868 9.91212L20.4963 9.9256ZM20.3923 9.22764L20.4963 9.9256L20.5868 9.91212L20.4828 9.21416L20.3923 9.22764ZM20.4444 10.5081C20.5193 10.4969 20.5891 10.5486 20.6003 10.6236L20.6908 10.6101C20.6721 10.4852 20.5558 10.399 20.4309 10.4176L20.4444 10.5081ZM20.3289 10.664C20.3177 10.589 20.3694 10.5192 20.4444 10.5081L20.4309 10.4176C20.3059 10.4362 20.2198 10.5526 20.2384 10.6775L20.3289 10.664ZM20.4329 11.362L20.3289 10.664L20.2384 10.6775L20.3424 11.3754L20.4329 11.362ZM20.5888 11.4774C20.5138 11.4886 20.444 11.4369 20.4329 11.362L20.3424 11.3754C20.361 11.5004 20.4774 11.5865 20.6023 11.5679L20.5888 11.4774ZM20.7043 11.3215C20.7155 11.3965 20.6637 11.4663 20.5888 11.4774L20.6023 11.5679C20.7272 11.5493 20.8134 11.4329 20.7948 11.308L20.7043 11.3215ZM20.6003 10.6236L20.7043 11.3215L20.7948 11.308L20.6908 10.6101L20.6003 10.6236ZM20.6523 11.904C20.7273 11.8928 20.7971 11.9445 20.8083 12.0195L20.8988 12.006C20.8801 11.8811 20.7638 11.7949 20.6389 11.8135L20.6523 11.904ZM20.5369 12.0599C20.5257 11.985 20.5774 11.9151 20.6523 11.904L20.6389 11.8135C20.5139 11.8321 20.4278 11.9485 20.4464 12.0734L20.5369 12.0599ZM20.5889 12.4089L20.5369 12.0599L20.4464 12.0734L20.4984 12.4224L20.5889 12.4089ZM20.7448 12.5244C20.6698 12.5355 20.6 12.4838 20.5889 12.4089L20.4984 12.4224C20.517 12.5473 20.6334 12.6335 20.7583 12.6148L20.7448 12.5244ZM20.8603 12.3684C20.8715 12.4434 20.8197 12.5132 20.7448 12.5244L20.7583 12.6148C20.8832 12.5962 20.9694 12.4799 20.9508 12.355L20.8603 12.3684ZM20.8083 12.0195L20.8603 12.3684L20.9508 12.355L20.8988 12.006L20.8083 12.0195Z" fill="black"/>
</g>
<mask id="path-3-outside-1_407_8915" maskUnits="userSpaceOnUse" x="6.65039" y="6.29851" width="11.322" height="4.5884" fill="black">
<rect fill="white" x="6.65039" y="6.29851" width="11.322" height="4.5884"/>
<path d="M7.71442 9.78321L7.78491 8.32985L7.22826 8.4128L7.24647 8.07477L8.76236 7.8489L8.74414 8.18692L8.18998 8.2695L8.117 9.72323L7.71442 9.78321ZM8.89026 9.608L8.97897 7.81662L9.38404 7.75626L9.29533 9.54765L8.89026 9.608ZM10.6246 9.38006C10.4474 9.40647 10.2894 9.39783 10.1508 9.35413C10.0136 9.30853 9.90184 9.23458 9.81547 9.13229C9.72886 9.02835 9.67444 8.90182 9.65222 8.75272C9.63025 8.60527 9.63544 8.46394 9.66779 8.32872C9.7018 8.19325 9.7591 8.0721 9.83971 7.96525C9.92173 7.8565 10.0242 7.76587 10.1472 7.69335C10.2718 7.62059 10.4153 7.57211 10.5777 7.54792C10.7334 7.52471 10.8749 7.53073 11.0021 7.56597C11.1293 7.60121 11.2309 7.66397 11.307 7.75424L11.0518 8.03613C10.9972 7.97652 10.9325 7.93451 10.8577 7.91009C10.783 7.88566 10.6976 7.88061 10.6015 7.89493C10.5037 7.90949 10.4177 7.9401 10.3433 7.98674C10.2688 8.03172 10.2072 8.09001 10.1586 8.1616C10.1114 8.2313 10.079 8.30978 10.0615 8.39706C10.0441 8.48434 10.0422 8.57437 10.0561 8.66714C10.0692 8.75495 10.0997 8.82915 10.1477 8.88974C10.1954 8.94867 10.2584 8.99093 10.3367 9.01652C10.4151 9.0421 10.5056 9.04724 10.6083 9.03194C10.6978 9.01861 10.7791 8.9904 10.8523 8.94732C10.9252 8.90258 10.988 8.84074 11.0405 8.76177L11.3154 8.96976C11.2401 9.08937 11.143 9.18257 11.0243 9.24938C10.9069 9.31428 10.7737 9.35784 10.6246 9.38006ZM11.9163 8.75067L11.9013 8.27534L12.7601 7.25322L13.2471 7.18064L12.4505 8.12492L12.2183 8.39069L11.9163 8.75067ZM11.5282 9.21494L11.6169 7.42355L12.017 7.36394L11.9283 9.15532L11.5282 9.21494ZM12.7434 9.03386L12.1335 8.34998L12.3789 8.03652L13.1957 8.96647L12.7434 9.03386ZM13.792 7.8158L14.6294 7.69102L14.614 8.01339L13.7765 8.13818L13.792 7.8158ZM13.7843 8.54853L14.7336 8.40708L14.7146 8.74014L13.3677 8.94084L13.4565 7.14945L14.771 6.95357L14.7521 7.28662L13.8401 7.42252L13.7843 8.54853ZM15.3953 8.63872L15.4658 7.18536L14.9091 7.2683L14.9274 6.93028L16.4432 6.7044L16.425 7.04243L15.8709 7.125L15.7979 8.57873L15.3953 8.63872Z"/>
</mask>
<path d="M7.71442 9.78321L7.78491 8.32985L7.22826 8.4128L7.24647 8.07477L8.76236 7.8489L8.74414 8.18692L8.18998 8.2695L8.117 9.72323L7.71442 9.78321ZM8.89026 9.608L8.97897 7.81662L9.38404 7.75626L9.29533 9.54765L8.89026 9.608ZM10.6246 9.38006C10.4474 9.40647 10.2894 9.39783 10.1508 9.35413C10.0136 9.30853 9.90184 9.23458 9.81547 9.13229C9.72886 9.02835 9.67444 8.90182 9.65222 8.75272C9.63025 8.60527 9.63544 8.46394 9.66779 8.32872C9.7018 8.19325 9.7591 8.0721 9.83971 7.96525C9.92173 7.8565 10.0242 7.76587 10.1472 7.69335C10.2718 7.62059 10.4153 7.57211 10.5777 7.54792C10.7334 7.52471 10.8749 7.53073 11.0021 7.56597C11.1293 7.60121 11.2309 7.66397 11.307 7.75424L11.0518 8.03613C10.9972 7.97652 10.9325 7.93451 10.8577 7.91009C10.783 7.88566 10.6976 7.88061 10.6015 7.89493C10.5037 7.90949 10.4177 7.9401 10.3433 7.98674C10.2688 8.03172 10.2072 8.09001 10.1586 8.1616C10.1114 8.2313 10.079 8.30978 10.0615 8.39706C10.0441 8.48434 10.0422 8.57437 10.0561 8.66714C10.0692 8.75495 10.0997 8.82915 10.1477 8.88974C10.1954 8.94867 10.2584 8.99093 10.3367 9.01652C10.4151 9.0421 10.5056 9.04724 10.6083 9.03194C10.6978 9.01861 10.7791 8.9904 10.8523 8.94732C10.9252 8.90258 10.988 8.84074 11.0405 8.76177L11.3154 8.96976C11.2401 9.08937 11.143 9.18257 11.0243 9.24938C10.9069 9.31428 10.7737 9.35784 10.6246 9.38006ZM11.9163 8.75067L11.9013 8.27534L12.7601 7.25322L13.2471 7.18064L12.4505 8.12492L12.2183 8.39069L11.9163 8.75067ZM11.5282 9.21494L11.6169 7.42355L12.017 7.36394L11.9283 9.15532L11.5282 9.21494ZM12.7434 9.03386L12.1335 8.34998L12.3789 8.03652L13.1957 8.96647L12.7434 9.03386ZM13.792 7.8158L14.6294 7.69102L14.614 8.01339L13.7765 8.13818L13.792 7.8158ZM13.7843 8.54853L14.7336 8.40708L14.7146 8.74014L13.3677 8.94084L13.4565 7.14945L14.771 6.95357L14.7521 7.28662L13.8401 7.42252L13.7843 8.54853ZM15.3953 8.63872L15.4658 7.18536L14.9091 7.2683L14.9274 6.93028L16.4432 6.7044L16.425 7.04243L15.8709 7.125L15.7979 8.57873L15.3953 8.63872Z" fill="black"/>
<path d="M7.71442 9.78321L7.55757 9.7756L7.54831 9.96673L7.73756 9.93853L7.71442 9.78321ZM7.78491 8.32985L7.94176 8.33746L7.95103 8.14634L7.76177 8.17454L7.78491 8.32985ZM7.22826 8.4128L7.07145 8.40435L7.0611 8.59647L7.2514 8.56812L7.22826 8.4128ZM7.24647 8.07477L7.22333 7.91946L7.09657 7.93834L7.08967 8.06632L7.24647 8.07477ZM8.76236 7.8489L8.91917 7.85735L8.92952 7.66522L8.73922 7.69358L8.76236 7.8489ZM8.74414 8.18692L8.76729 8.34224L8.89405 8.32335L8.90095 8.19537L8.74414 8.18692ZM8.18997 8.2695L8.16683 8.11418L8.03959 8.13314L8.03314 8.26162L8.18997 8.2695ZM8.117 9.72323L8.14014 9.87854L8.26739 9.85958L8.27384 9.7311L8.117 9.72323ZM7.87127 9.79082L7.94176 8.33746L7.62806 8.32225L7.55757 9.7756L7.87127 9.79082ZM7.76177 8.17454L7.20511 8.25748L7.2514 8.56812L7.80805 8.48517L7.76177 8.17454ZM7.38506 8.42125L7.40328 8.08322L7.08967 8.06632L7.07145 8.40435L7.38506 8.42125ZM7.26962 8.23009L8.78551 8.00421L8.73922 7.69358L7.22333 7.91946L7.26962 8.23009ZM8.60556 7.84045L8.58734 8.17847L8.90095 8.19537L8.91917 7.85735L8.60556 7.84045ZM8.721 8.03161L8.16683 8.11418L8.21312 8.42481L8.76729 8.34224L8.721 8.03161ZM8.03314 8.26162L7.96017 9.71535L8.27384 9.7311L8.34681 8.27737L8.03314 8.26162ZM8.09386 9.56791L7.69128 9.6279L7.73756 9.93853L8.14014 9.87854L8.09386 9.56791ZM8.89026 9.608L8.73342 9.60024L8.72395 9.79155L8.91341 9.76332L8.89026 9.608ZM8.97897 7.81662L8.95583 7.6613L8.8285 7.68028L8.82213 7.80885L8.97897 7.81662ZM9.38404 7.75626L9.54087 7.76403L9.55035 7.57272L9.36089 7.60095L9.38404 7.75626ZM9.29533 9.54765L9.31847 9.70296L9.4458 9.68399L9.45217 9.55541L9.29533 9.54765ZM9.0471 9.61577L9.13581 7.82439L8.82213 7.80885L8.73342 9.60024L9.0471 9.61577ZM9.00211 7.97194L9.40718 7.91158L9.36089 7.60095L8.95583 7.6613L9.00211 7.97194ZM9.2272 7.7485L9.13849 9.53988L9.45217 9.55541L9.54087 7.76403L9.2272 7.7485ZM9.27219 9.39233L8.86712 9.45269L8.91341 9.76332L9.31847 9.70296L9.27219 9.39233ZM10.1508 9.35413L10.1013 9.50316L10.1036 9.50389L10.1508 9.35413ZM9.81547 9.13229L9.69483 9.23282L9.69549 9.2336L9.81547 9.13229ZM9.66779 8.32872L9.51548 8.29048L9.51507 8.29218L9.66779 8.32872ZM9.83971 7.96525L9.96507 8.05983L9.96509 8.05981L9.83971 7.96525ZM10.1472 7.69335L10.068 7.55774L10.0674 7.55809L10.1472 7.69335ZM11.0021 7.56597L10.9601 7.7173L10.9601 7.7173L11.0021 7.56597ZM11.307 7.75424L11.4234 7.85963L11.5155 7.75791L11.4271 7.65301L11.307 7.75424ZM11.0518 8.03613L10.936 8.1422L11.0525 8.26934L11.1682 8.14152L11.0518 8.03613ZM10.8577 7.91009L10.9065 7.76082L10.9065 7.76082L10.8577 7.91009ZM10.3433 7.98674L10.4245 8.12123L10.4268 8.11976L10.3433 7.98674ZM10.1586 8.1616L10.0286 8.0734L10.0285 8.07355L10.1586 8.1616ZM10.1477 8.88974L10.0245 8.98723L10.0256 8.98857L10.1477 8.88974ZM10.8523 8.94732L10.9319 9.08266L10.9344 9.08117L10.8523 8.94732ZM11.0405 8.76177L11.1353 8.63655L11.0023 8.53591L10.9098 8.67473L11.0405 8.76177ZM11.3154 8.96976L11.4483 9.05344L11.5251 8.9315L11.4102 8.84454L11.3154 8.96976ZM11.0243 9.24938L11.1003 9.3868L11.1013 9.38624L11.0243 9.24938ZM10.6015 9.22474C10.4424 9.24845 10.3092 9.23943 10.198 9.20437L10.1036 9.50389C10.2696 9.55623 10.4523 9.5645 10.6478 9.53538L10.6015 9.22474ZM10.2003 9.20512C10.0883 9.16787 10.0017 9.10943 9.93545 9.03098L9.69549 9.2336C9.80199 9.35973 9.93894 9.44918 10.1013 9.50314L10.2003 9.20512ZM9.93611 9.03177C9.86998 8.95241 9.82601 8.85354 9.80754 8.72958L9.49691 8.77586C9.52287 8.95011 9.58773 9.10429 9.69483 9.23282L9.93611 9.03177ZM9.80754 8.72958C9.78831 8.60056 9.79317 8.47956 9.82051 8.36526L9.51507 8.29218C9.47771 8.44832 9.47219 8.60999 9.49691 8.77586L9.80754 8.72958ZM9.8201 8.36695C9.84921 8.25098 9.89768 8.14916 9.96507 8.05983L9.71435 7.87068C9.62053 7.99504 9.55438 8.13553 9.51549 8.29049L9.8201 8.36695ZM9.96509 8.05981C10.0341 7.96827 10.1208 7.89119 10.227 7.82862L10.0674 7.55809C9.92761 7.64054 9.80934 7.74473 9.71434 7.8707L9.96509 8.05981ZM10.2264 7.82896C10.3316 7.76756 10.4556 7.72488 10.6008 7.70323L10.5546 7.3926C10.3751 7.41934 10.2121 7.47362 10.068 7.55774L10.2264 7.82896ZM10.6008 7.70323C10.739 7.68265 10.8578 7.68895 10.9601 7.7173L11.044 7.41464C10.892 7.37252 10.7279 7.36677 10.5546 7.3926L10.6008 7.70323ZM10.9601 7.7173C11.0606 7.74513 11.1336 7.79218 11.187 7.85546L11.4271 7.65301C11.3282 7.53575 11.1979 7.4573 11.044 7.41464L10.9601 7.7173ZM11.1906 7.64885L10.9354 7.93074L11.1682 8.14152L11.4234 7.85963L11.1906 7.64885ZM11.1676 7.93005C11.0953 7.8511 11.0077 7.79387 10.9065 7.76082L10.809 8.05936C10.8573 8.07515 10.8991 8.10195 10.936 8.1422L11.1676 7.93005ZM10.9065 7.76082C10.8038 7.72725 10.693 7.72253 10.5783 7.73961L10.6246 8.05025C10.7021 8.03869 10.7622 8.04407 10.809 8.05936L10.9065 7.76082ZM10.5783 7.73961C10.4619 7.75697 10.3548 7.7942 10.2599 7.85372L10.4268 8.11976C10.4806 8.086 10.5456 8.06202 10.6246 8.05025L10.5783 7.73961ZM10.2622 7.85227C10.1684 7.90889 10.0901 7.98292 10.0286 8.0734L10.2885 8.2498C10.3243 8.1971 10.3691 8.15455 10.4244 8.12121L10.2622 7.85227ZM10.0285 8.07355C9.96897 8.16152 9.92891 8.25967 9.90758 8.36623L10.2155 8.42789C10.2291 8.35989 10.2538 8.30107 10.2886 8.24965L10.0285 8.07355ZM9.90758 8.36623C9.88635 8.47223 9.8844 8.58055 9.90075 8.69028L10.2114 8.644C10.2001 8.56818 10.2018 8.49645 10.2155 8.42789L9.90758 8.36623ZM9.90075 8.69028C9.91727 8.80117 9.95712 8.90206 10.0246 8.98722L10.2708 8.79225C10.2422 8.75623 10.221 8.70873 10.2114 8.644L9.90075 8.69028ZM10.0256 8.98857C10.0941 9.07306 10.1835 9.13165 10.288 9.16578L10.3855 8.86725C10.3334 8.85021 10.2967 8.82428 10.2697 8.7909L10.0256 8.98857ZM10.288 9.16578C10.3947 9.20065 10.5107 9.20524 10.6315 9.18725L10.5852 8.87662C10.5004 8.88924 10.4354 8.88355 10.3855 8.86725L10.288 9.16578ZM10.6315 9.18725C10.7396 9.17115 10.8403 9.13661 10.9319 9.08264L10.7726 8.812C10.7179 8.84419 10.656 8.86607 10.5852 8.87662L10.6315 9.18725ZM10.9344 9.08117C11.0287 9.0233 11.1074 8.94464 11.1712 8.84882L10.9098 8.67473C10.8685 8.73683 10.8217 8.78187 10.7702 8.81347L10.9344 9.08117ZM10.9458 8.88699L11.2206 9.09498L11.4102 8.84454L11.1353 8.63655L10.9458 8.88699ZM11.1825 8.88608C11.1206 8.98445 11.0424 9.05901 10.9473 9.11252L11.1013 9.38624C11.2437 9.30614 11.3596 9.19429 11.4483 9.05344L11.1825 8.88608ZM10.9483 9.11197C10.8493 9.16674 10.7343 9.20495 10.6015 9.22474L10.6478 9.53538C10.8131 9.51073 10.9646 9.46183 11.1003 9.38679L10.9483 9.11197ZM11.9163 8.75067L11.7593 8.75561L11.7722 9.1667L12.0366 8.8516L11.9163 8.75067ZM11.9013 8.27534L11.7811 8.17433L11.7425 8.22028L11.7444 8.28027L11.9013 8.27534ZM12.7601 7.25322L12.7369 7.0979L12.6781 7.10667L12.6398 7.15221L12.7601 7.25322ZM13.2471 7.18064L13.3671 7.2819L13.6353 6.96404L13.224 7.02533L13.2471 7.18064ZM12.4505 8.12492L12.5687 8.22826L12.5705 8.22618L12.4505 8.12492ZM12.2183 8.39069L12.1 8.28734L12.098 8.28976L12.2183 8.39069ZM11.5282 9.21494L11.3714 9.20717L11.3619 9.39848L11.5514 9.37025L11.5282 9.21494ZM11.6169 7.42355L11.5938 7.26824L11.4664 7.28721L11.4601 7.41579L11.6169 7.42355ZM12.017 7.36394L12.1739 7.3717L12.1833 7.18039L11.9939 7.20862L12.017 7.36394ZM11.9283 9.15532L11.9515 9.31064L12.0788 9.29166L12.0851 9.16309L11.9283 9.15532ZM12.7434 9.03386L12.6262 9.13839L12.6827 9.20168L12.7666 9.18918L12.7434 9.03386ZM12.1335 8.34998L12.0098 8.25317L11.9289 8.35653L12.0163 8.4545L12.1335 8.34998ZM12.3789 8.03652L12.4969 7.93289L12.3719 7.79067L12.2552 7.93972L12.3789 8.03652ZM13.1957 8.96647L13.2188 9.12179L13.5038 9.07932L13.3137 8.86284L13.1957 8.96647ZM12.0732 8.74574L12.0583 8.2704L11.7444 8.28027L11.7593 8.75561L12.0732 8.74574ZM12.0216 8.37635L12.8803 7.35423L12.6398 7.15221L11.7811 8.17433L12.0216 8.37635ZM12.7832 7.40854L13.2703 7.33596L13.224 7.02533L12.7369 7.0979L12.7832 7.40854ZM13.1271 7.07938L12.3305 8.02367L12.5705 8.22618L13.3671 7.2819L13.1271 7.07938ZM12.3322 8.0216L12.1 8.28736L12.3365 8.49401L12.5687 8.22825L12.3322 8.0216ZM12.098 8.28976L11.796 8.64975L12.0366 8.8516L12.3386 8.49161L12.098 8.28976ZM11.6851 9.2227L11.7738 7.43132L11.4601 7.41579L11.3714 9.20717L11.6851 9.2227ZM11.6401 7.57887L12.0402 7.51925L11.9939 7.20862L11.5938 7.26824L11.6401 7.57887ZM11.8602 7.35617L11.7715 9.14755L12.0851 9.16309L12.1739 7.3717L11.8602 7.35617ZM11.9052 9L11.5051 9.05962L11.5514 9.37025L11.9515 9.31064L11.9052 9ZM12.8606 8.92934L12.2507 8.24546L12.0163 8.4545L12.6262 9.13839L12.8606 8.92934ZM12.2571 8.44678L12.5025 8.13333L12.2552 7.93972L12.0098 8.25317L12.2571 8.44678ZM12.2609 8.14015L13.0777 9.0701L13.3137 8.86284L12.4969 7.93289L12.2609 8.14015ZM13.1725 8.81116L12.7203 8.87855L12.7666 9.18918L13.2188 9.12179L13.1725 8.81116ZM13.792 7.8158L13.7688 7.66049L13.6413 7.67949L13.6351 7.80828L13.792 7.8158ZM14.6294 7.69102L14.7863 7.69854L14.7955 7.50751L14.6063 7.5357L14.6294 7.69102ZM14.614 8.01339L14.6371 8.16871L14.7646 8.1497L14.7708 8.02092L14.614 8.01339ZM13.7765 8.13818L13.6197 8.13065L13.6105 8.32168L13.7997 8.29349L13.7765 8.13818ZM13.7843 8.54853L13.6275 8.54077L13.618 8.73208L13.8075 8.70385L13.7843 8.54853ZM14.7336 8.40708L14.8904 8.41601L14.9014 8.22332L14.7105 8.25177L14.7336 8.40708ZM14.7146 8.74014L14.7378 8.89546L14.8642 8.87663L14.8714 8.74906L14.7146 8.74014ZM13.3677 8.94084L13.2109 8.93307L13.2014 9.12438L13.3909 9.09615L13.3677 8.94084ZM13.4565 7.14945L13.4333 6.99414L13.306 7.01311L13.2996 7.14169L13.4565 7.14945ZM14.771 6.95357L14.9278 6.96249L14.9388 6.76981L14.7479 6.79825L14.771 6.95357ZM14.7521 7.28662L14.7752 7.44194L14.9016 7.42311L14.9089 7.29555L14.7521 7.28662ZM13.8401 7.42252L13.8169 7.2672L13.6896 7.28618L13.6832 7.41475L13.8401 7.42252ZM13.8151 7.97112L14.6526 7.84633L14.6063 7.5357L13.7688 7.66049L13.8151 7.97112ZM14.4726 7.68349L14.4571 8.00586L14.7708 8.02092L14.7863 7.69854L14.4726 7.68349ZM14.5908 7.85807L13.7534 7.98286L13.7997 8.29349L14.6371 8.16871L14.5908 7.85807ZM13.9334 8.1457L13.9488 7.82333L13.6351 7.80828L13.6197 8.13065L13.9334 8.1457ZM13.8075 8.70385L14.7567 8.5624L14.7105 8.25177L13.7612 8.39322L13.8075 8.70385ZM14.5768 8.39816L14.5579 8.73121L14.8714 8.74906L14.8904 8.41601L14.5768 8.39816ZM14.6915 8.58482L13.3446 8.78552L13.3909 9.09615L14.7378 8.89546L14.6915 8.58482ZM13.5246 8.9486L13.6133 7.15722L13.2996 7.14169L13.2109 8.93307L13.5246 8.9486ZM13.4796 7.30477L14.7942 7.10889L14.7479 6.79825L13.4333 6.99414L13.4796 7.30477ZM14.6143 6.94464L14.5953 7.2777L14.9089 7.29555L14.9278 6.96249L14.6143 6.94464ZM14.7289 7.13131L13.8169 7.2672L13.8632 7.57784L14.7752 7.44194L14.7289 7.13131ZM13.6832 7.41475L13.6275 8.54077L13.9412 8.5563L13.9969 7.43029L13.6832 7.41475ZM15.3953 8.63872L15.2385 8.63111L15.2292 8.82223L15.4184 8.79403L15.3953 8.63872ZM15.4658 7.18536L15.6226 7.19297L15.6319 7.00184L15.4426 7.03004L15.4658 7.18536ZM14.9091 7.2683L14.7523 7.25985L14.742 7.45198L14.9323 7.42362L14.9091 7.2683ZM14.9274 6.93028L14.9042 6.77496L14.7774 6.79385L14.7706 6.92183L14.9274 6.93028ZM16.4432 6.7044L16.6 6.71285L16.6104 6.52073L16.4201 6.54909L16.4432 6.7044ZM16.425 7.04243L16.4482 7.19775L16.5749 7.17886L16.5818 7.05088L16.425 7.04243ZM15.8709 7.125L15.8477 6.96969L15.7205 6.98865L15.714 7.11713L15.8709 7.125ZM15.7979 8.57873L15.821 8.73405L15.9483 8.71509L15.9547 8.5866L15.7979 8.57873ZM15.5521 8.64633L15.6226 7.19297L15.3089 7.17775L15.2385 8.63111L15.5521 8.64633ZM15.4426 7.03004L14.886 7.11299L14.9323 7.42362L15.4889 7.34068L15.4426 7.03004ZM15.0659 7.27676L15.0842 6.93873L14.7706 6.92183L14.7523 7.25985L15.0659 7.27676ZM14.9505 7.0856L16.4664 6.85972L16.4201 6.54909L14.9042 6.77496L14.9505 7.0856ZM16.2864 6.69595L16.2682 7.03398L16.5818 7.05088L16.6 6.71285L16.2864 6.69595ZM16.4019 6.88711L15.8477 6.96969L15.894 7.28032L16.4482 7.19775L16.4019 6.88711ZM15.714 7.11713L15.641 8.57086L15.9547 8.5866L16.0277 7.13288L15.714 7.11713ZM15.7747 8.42341L15.3722 8.4834L15.4184 8.79403L15.821 8.73405L15.7747 8.42341Z" fill="black" mask="url(#path-3-outside-1_407_8915)"/>
<g filter="url(#filter1_d_407_8915)">
<path fill-rule="evenodd" clip-rule="evenodd" d="M18.6555 4.15503H1.91474C1.40955 4.15503 1 4.56457 1 5.06977V7.17789C2.27903 7.62996 3.1954 8.84976 3.1954 10.2836C3.1954 11.7174 2.27903 12.9372 1 13.3893V15.4064C1 15.9116 1.40955 16.3211 1.91474 16.3211L18.6555 16.3211C18.6555 15.9675 18.9422 15.6808 19.2958 15.6808C19.6494 15.6808 19.9361 15.9675 19.9361 16.3211L23.5484 16.3211C24.0536 16.3211 24.4632 15.9116 24.4632 15.4064V13.2987C23.3049 12.7885 22.4963 11.6305 22.4963 10.2836C22.4963 8.9367 23.3049 7.77866 24.4632 7.26846V5.06977C24.4632 4.56457 24.0536 4.15503 23.5484 4.15503H19.9361C19.9361 4.50865 19.6494 4.79531 19.2958 4.79531C18.9422 4.79531 18.6555 4.50865 18.6555 4.15503ZM19.4783 5.34401C19.4783 5.24297 19.3964 5.16106 19.2954 5.16106C19.1943 5.16106 19.1124 5.24297 19.1124 5.34401V5.69684C19.1124 5.79788 19.1943 5.87979 19.2954 5.87979C19.3964 5.87979 19.4783 5.79788 19.4783 5.69684V5.34401ZM19.4783 6.4025C19.4783 6.30146 19.3964 6.21955 19.2954 6.21955C19.1943 6.21955 19.1124 6.30146 19.1124 6.4025V7.10816C19.1124 7.2092 19.1943 7.29111 19.2954 7.29111C19.3964 7.29111 19.4783 7.2092 19.4783 7.10816V6.4025ZM19.4783 7.81382C19.4783 7.71278 19.3964 7.63087 19.2954 7.63087C19.1943 7.63087 19.1124 7.71278 19.1124 7.81382V8.51948C19.1124 8.62052 19.1943 8.70243 19.2954 8.70243C19.3964 8.70243 19.4783 8.62052 19.4783 8.51948V7.81382ZM19.4783 9.22514C19.4783 9.1241 19.3964 9.04219 19.2954 9.04219C19.1943 9.04219 19.1124 9.1241 19.1124 9.22514V9.9308C19.1124 10.0318 19.1943 10.1137 19.2954 10.1137C19.3964 10.1137 19.4783 10.0318 19.4783 9.9308V9.22514ZM19.4783 10.6365C19.4783 10.5354 19.3964 10.4535 19.2954 10.4535C19.1943 10.4535 19.1124 10.5354 19.1124 10.6365V11.3421C19.1124 11.4432 19.1943 11.5251 19.2954 11.5251C19.3964 11.5251 19.4783 11.4432 19.4783 11.3421V10.6365ZM19.4783 12.0478C19.4783 11.9467 19.3964 11.8648 19.2954 11.8648C19.1943 11.8648 19.1124 11.9467 19.1124 12.0478V12.7534C19.1124 12.8545 19.1943 12.9364 19.2954 12.9364C19.3964 12.9364 19.4783 12.8545 19.4783 12.7534V12.0478ZM19.4783 13.4591C19.4783 13.3581 19.3964 13.2761 19.2954 13.2761C19.1943 13.2761 19.1124 13.3581 19.1124 13.4591V14.1648C19.1124 14.2658 19.1943 14.3477 19.2954 14.3477C19.3964 14.3477 19.4783 14.2658 19.4783 14.1648V13.4591ZM19.4783 14.8704C19.4783 14.7694 19.3964 14.6875 19.2954 14.6875C19.1943 14.6875 19.1124 14.7694 19.1124 14.8704V15.2232C19.1124 15.3243 19.1943 15.4062 19.2954 15.4062C19.3964 15.4062 19.4783 15.3243 19.4783 15.2232V14.8704Z" fill="#360146"/>
<path d="M18.6555 4.15503L18.7012 4.15503L18.7012 4.10929H18.6555V4.15503ZM1 7.17789H0.954263V7.21024L0.984759 7.22102L1 7.17789ZM1 13.3893L0.984759 13.3462L0.954263 13.357V13.3893H1ZM1.91474 16.3211L1.91475 16.2754H1.91474V16.3211ZM18.6555 16.3211V16.3669H18.7012V16.3211H18.6555ZM19.9361 16.3211H19.8904V16.3669H19.9361V16.3211ZM23.5484 16.3211V16.2754V16.3211ZM24.4632 13.2987H24.5089V13.2689L24.4816 13.2569L24.4632 13.2987ZM24.4632 7.26846L24.4816 7.31032L24.5089 7.29829V7.26846H24.4632ZM19.9361 4.15503V4.10929H19.8904L19.8904 4.15503L19.9361 4.15503ZM19.2954 5.87979V5.92552V5.87979ZM1.91474 4.20077H18.6555V4.10929H1.91474V4.20077ZM1.04574 5.06977C1.04574 4.58983 1.43481 4.20077 1.91474 4.20077V4.10929C1.38429 4.10929 0.954263 4.53931 0.954263 5.06977H1.04574ZM1.04574 7.17789V5.06977H0.954263V7.17789H1.04574ZM3.24114 10.2836C3.24114 8.82978 2.31198 7.59309 1.01524 7.13477L0.984759 7.22102C2.24609 7.66682 3.14967 8.86975 3.14967 10.2836H3.24114ZM1.01524 13.4324C2.31198 12.9741 3.24114 11.7374 3.24114 10.2836H3.14967C3.14967 11.6974 2.24609 12.9004 0.984759 13.3462L1.01524 13.4324ZM1.04574 15.4064V13.3893H0.954263V15.4064H1.04574ZM1.91474 16.2754C1.43481 16.2754 1.04574 15.8863 1.04574 15.4064H0.954263C0.954263 15.9368 1.38429 16.3669 1.91474 16.3669V16.2754ZM18.6555 16.2754L1.91475 16.2754L1.91474 16.3669L18.6555 16.3669V16.2754ZM19.2958 15.6351C18.9169 15.6351 18.6097 15.9422 18.6097 16.3211H18.7012C18.7012 15.9928 18.9674 15.7266 19.2958 15.7266V15.6351ZM19.9819 16.3211C19.9819 15.9422 19.6747 15.6351 19.2958 15.6351V15.7266C19.6242 15.7266 19.8904 15.9928 19.8904 16.3211H19.9819ZM23.5484 16.2754L19.9361 16.2754V16.3669L23.5484 16.3669V16.2754ZM24.4175 15.4064C24.4175 15.8863 24.0284 16.2754 23.5484 16.2754V16.3669C24.0789 16.3669 24.5089 15.9368 24.5089 15.4064H24.4175ZM24.4175 13.2987V15.4064H24.5089V13.2987H24.4175ZM22.4506 10.2836C22.4506 11.6493 23.2705 12.8233 24.4448 13.3406L24.4816 13.2569C23.3394 12.7537 22.542 11.6117 22.542 10.2836H22.4506ZM24.4448 7.22661C23.2705 7.74384 22.4506 8.91792 22.4506 10.2836H22.542C22.542 8.95547 23.3394 7.81347 24.4816 7.31032L24.4448 7.22661ZM24.4175 5.06977V7.26846H24.5089V5.06977H24.4175ZM23.5484 4.20077C24.0284 4.20077 24.4175 4.58983 24.4175 5.06977H24.5089C24.5089 4.53931 24.0789 4.10929 23.5484 4.10929V4.20077ZM19.9361 4.20077H23.5484V4.10929H19.9361V4.20077ZM19.2958 4.84105C19.6747 4.84105 19.9818 4.53391 19.9819 4.15503L19.8904 4.15503C19.8904 4.48339 19.6242 4.74957 19.2958 4.74957V4.84105ZM18.6097 4.15503C18.6098 4.53391 18.9169 4.84105 19.2958 4.84105V4.74957C18.9674 4.74957 18.7012 4.48339 18.7012 4.15503L18.6097 4.15503ZM19.2954 5.2068C19.3712 5.2068 19.4326 5.26823 19.4326 5.34401H19.5241C19.5241 5.21771 19.4217 5.11532 19.2954 5.11532V5.2068ZM19.1582 5.34401C19.1582 5.26823 19.2196 5.2068 19.2954 5.2068V5.11532C19.1691 5.11532 19.0667 5.21771 19.0667 5.34401H19.1582ZM19.1582 5.69684V5.34401H19.0667V5.69684H19.1582ZM19.2954 5.83405C19.2196 5.83405 19.1582 5.77262 19.1582 5.69684H19.0667C19.0667 5.82314 19.1691 5.92552 19.2954 5.92552V5.83405ZM19.4326 5.69684C19.4326 5.77262 19.3712 5.83405 19.2954 5.83405V5.92552C19.4217 5.92552 19.5241 5.82314 19.5241 5.69684H19.4326ZM19.4326 5.34401V5.69684H19.5241V5.34401H19.4326ZM19.2954 6.26529C19.3712 6.26529 19.4326 6.32672 19.4326 6.4025H19.5241C19.5241 6.2762 19.4217 6.17381 19.2954 6.17381V6.26529ZM19.1582 6.4025C19.1582 6.32672 19.2196 6.26529 19.2954 6.26529V6.17381C19.1691 6.17381 19.0667 6.2762 19.0667 6.4025H19.1582ZM19.1582 7.10816V6.4025H19.0667V7.10816H19.1582ZM19.2954 7.24537C19.2196 7.24537 19.1582 7.18394 19.1582 7.10816H19.0667C19.0667 7.23446 19.1691 7.33684 19.2954 7.33684V7.24537ZM19.4326 7.10816C19.4326 7.18394 19.3712 7.24537 19.2954 7.24537V7.33684C19.4217 7.33684 19.5241 7.23446 19.5241 7.10816H19.4326ZM19.4326 6.4025V7.10816H19.5241V6.4025H19.4326ZM19.2954 7.67661C19.3712 7.67661 19.4326 7.73804 19.4326 7.81382H19.5241C19.5241 7.68752 19.4217 7.58513 19.2954 7.58513V7.67661ZM19.1582 7.81382C19.1582 7.73804 19.2196 7.67661 19.2954 7.67661V7.58513C19.1691 7.58513 19.0667 7.68752 19.0667 7.81382H19.1582ZM19.1582 8.51948V7.81382H19.0667V8.51948H19.1582ZM19.2954 8.65669C19.2196 8.65669 19.1582 8.59526 19.1582 8.51948H19.0667C19.0667 8.64578 19.1691 8.74817 19.2954 8.74817V8.65669ZM19.4326 8.51948C19.4326 8.59526 19.3712 8.65669 19.2954 8.65669V8.74817C19.4217 8.74817 19.5241 8.64578 19.5241 8.51948H19.4326ZM19.4326 7.81382V8.51948H19.5241V7.81382H19.4326ZM19.2954 9.08793C19.3712 9.08793 19.4326 9.14936 19.4326 9.22514H19.5241C19.5241 9.09884 19.4217 8.99645 19.2954 8.99645V9.08793ZM19.1582 9.22514C19.1582 9.14936 19.2196 9.08793 19.2954 9.08793V8.99645C19.1691 8.99645 19.0667 9.09884 19.0667 9.22514H19.1582ZM19.1582 9.9308V9.22514H19.0667V9.9308H19.1582ZM19.2954 10.068C19.2196 10.068 19.1582 10.0066 19.1582 9.9308H19.0667C19.0667 10.0571 19.1691 10.1595 19.2954 10.1595V10.068ZM19.4326 9.9308C19.4326 10.0066 19.3712 10.068 19.2954 10.068V10.1595C19.4217 10.1595 19.5241 10.0571 19.5241 9.9308H19.4326ZM19.4326 9.22514V9.9308H19.5241V9.22514H19.4326ZM19.2954 10.4992C19.3712 10.4992 19.4326 10.5607 19.4326 10.6365H19.5241C19.5241 10.5102 19.4217 10.4078 19.2954 10.4078V10.4992ZM19.1582 10.6365C19.1582 10.5607 19.2196 10.4992 19.2954 10.4992V10.4078C19.1691 10.4078 19.0667 10.5102 19.0667 10.6365H19.1582ZM19.1582 11.3421V10.6365H19.0667V11.3421H19.1582ZM19.2954 11.4793C19.2196 11.4793 19.1582 11.4179 19.1582 11.3421H19.0667C19.0667 11.4684 19.1691 11.5708 19.2954 11.5708V11.4793ZM19.4326 11.3421C19.4326 11.4179 19.3712 11.4793 19.2954 11.4793V11.5708C19.4217 11.5708 19.5241 11.4684 19.5241 11.3421H19.4326ZM19.4326 10.6365V11.3421H19.5241V10.6365H19.4326ZM19.2954 11.9106C19.3712 11.9106 19.4326 11.972 19.4326 12.0478H19.5241C19.5241 11.9215 19.4217 11.8191 19.2954 11.8191V11.9106ZM19.1582 12.0478C19.1582 11.972 19.2196 11.9106 19.2954 11.9106V11.8191C19.1691 11.8191 19.0667 11.9215 19.0667 12.0478H19.1582ZM19.1582 12.7534V12.0478H19.0667V12.7534H19.1582ZM19.2954 12.8906C19.2196 12.8906 19.1582 12.8292 19.1582 12.7534H19.0667C19.0667 12.8797 19.1691 12.9821 19.2954 12.9821V12.8906ZM19.4326 12.7534C19.4326 12.8292 19.3712 12.8906 19.2954 12.8906V12.9821C19.4217 12.9821 19.5241 12.8797 19.5241 12.7534H19.4326ZM19.4326 12.0478V12.7534H19.5241V12.0478H19.4326ZM19.2954 13.3219C19.3712 13.3219 19.4326 13.3833 19.4326 13.4591H19.5241C19.5241 13.3328 19.4217 13.2304 19.2954 13.2304V13.3219ZM19.1582 13.4591C19.1582 13.3833 19.2196 13.3219 19.2954 13.3219V13.2304C19.1691 13.2304 19.0667 13.3328 19.0667 13.4591H19.1582ZM19.1582 14.1648V13.4591H19.0667V14.1648H19.1582ZM19.2954 14.302C19.2196 14.302 19.1582 14.2405 19.1582 14.1648H19.0667C19.0667 14.2911 19.1691 14.3934 19.2954 14.3934V14.302ZM19.4326 14.1648C19.4326 14.2405 19.3712 14.302 19.2954 14.302V14.3934C19.4217 14.3934 19.5241 14.2911 19.5241 14.1648H19.4326ZM19.4326 13.4591V14.1648H19.5241V13.4591H19.4326ZM19.2954 14.7332C19.3712 14.7332 19.4326 14.7946 19.4326 14.8704H19.5241C19.5241 14.7441 19.4217 14.6417 19.2954 14.6417V14.7332ZM19.1582 14.8704C19.1582 14.7946 19.2196 14.7332 19.2954 14.7332V14.6417C19.1691 14.6417 19.0667 14.7441 19.0667 14.8704H19.1582ZM19.1582 15.2232V14.8704H19.0667V15.2232H19.1582ZM19.2954 15.3605C19.2196 15.3605 19.1582 15.299 19.1582 15.2232H19.0667C19.0667 15.3495 19.1691 15.4519 19.2954 15.4519V15.3605ZM19.4326 15.2232C19.4326 15.299 19.3712 15.3605 19.2954 15.3605V15.4519C19.4217 15.4519 19.5241 15.3495 19.5241 15.2232H19.4326ZM19.4326 14.8704V15.2232H19.5241V14.8704H19.4326Z" fill="black"/>
</g>
<mask id="path-7-outside-2_407_8915" maskUnits="userSpaceOnUse" x="6.03125" y="8.72827" width="11" height="3" fill="black">
<rect fill="white" x="6.03125" y="8.72827" width="11" height="3"/>
<path d="M6.80902 10.7283L7.09293 9.30117H6.53013L6.59797 8.96952H8.13059L8.06275 9.30117H7.50247L7.21604 10.7283H6.80902ZM7.99784 10.7283L8.34959 8.96952H8.75913L8.40738 10.7283H7.99784ZM9.74685 10.7584C9.56763 10.7584 9.41269 10.7266 9.28204 10.6629C9.15307 10.5976 9.0534 10.508 8.98305 10.3941C8.9127 10.2785 8.87753 10.1454 8.87753 9.99462C8.87753 9.84555 8.90349 9.70652 8.95542 9.57755C9.00902 9.44857 9.08355 9.33719 9.17903 9.24339C9.27618 9.14791 9.39092 9.07337 9.52324 9.01977C9.65724 8.96617 9.80632 8.93937 9.97047 8.93937C10.1279 8.93937 10.2669 8.96617 10.3875 9.01977C10.5081 9.07337 10.5994 9.15042 10.6614 9.25092L10.3674 9.49212C10.3222 9.42512 10.2644 9.37404 10.1941 9.33886C10.1237 9.30369 10.04 9.2861 9.94283 9.2861C9.844 9.2861 9.75439 9.30369 9.67399 9.33886C9.59359 9.37236 9.52408 9.42093 9.46545 9.48458C9.4085 9.54656 9.36495 9.61942 9.3348 9.70317C9.30465 9.78692 9.28958 9.8757 9.28958 9.9695C9.28958 10.0583 9.30884 10.1362 9.34737 10.2032C9.38589 10.2685 9.442 10.3196 9.5157 10.3564C9.5894 10.3933 9.67818 10.4117 9.78203 10.4117C9.87248 10.4117 9.95707 10.3958 10.0358 10.364C10.1145 10.3305 10.1857 10.2785 10.2494 10.2082L10.4906 10.4544C10.3984 10.5616 10.2887 10.6395 10.1614 10.6881C10.0358 10.735 9.8976 10.7584 9.74685 10.7584ZM11.1172 10.3263L11.1724 9.85392L12.1724 8.96952H12.6649L11.7378 9.78608L11.4689 10.0147L11.1172 10.3263ZM10.6649 10.7283L11.0167 8.96952H11.4212L11.0694 10.7283H10.6649ZM11.8935 10.7283L11.391 9.96196L11.68 9.6881L12.3508 10.7283H11.8935ZM13.1102 9.67805H13.9569L13.8941 9.99462H13.0474L13.1102 9.67805ZM12.9946 10.4016H13.9544L13.8865 10.7283H12.5248L12.8765 8.96952H14.2056L14.1378 9.29615H13.2157L12.9946 10.4016ZM14.5747 10.7283L14.8586 9.30117H14.2958L14.3636 8.96952H15.8963L15.8284 9.30117H15.2681L14.9817 10.7283H14.5747Z"/>
</mask>
<path d="M6.80902 10.7283L7.09293 9.30117H6.53013L6.59797 8.96952H8.13059L8.06275 9.30117H7.50247L7.21604 10.7283H6.80902ZM7.99784 10.7283L8.34959 8.96952H8.75913L8.40738 10.7283H7.99784ZM9.74685 10.7584C9.56763 10.7584 9.41269 10.7266 9.28204 10.6629C9.15307 10.5976 9.0534 10.508 8.98305 10.3941C8.9127 10.2785 8.87753 10.1454 8.87753 9.99462C8.87753 9.84555 8.90349 9.70652 8.95542 9.57755C9.00902 9.44857 9.08355 9.33719 9.17903 9.24339C9.27618 9.14791 9.39092 9.07337 9.52324 9.01977C9.65724 8.96617 9.80632 8.93937 9.97047 8.93937C10.1279 8.93937 10.2669 8.96617 10.3875 9.01977C10.5081 9.07337 10.5994 9.15042 10.6614 9.25092L10.3674 9.49212C10.3222 9.42512 10.2644 9.37404 10.1941 9.33886C10.1237 9.30369 10.04 9.2861 9.94283 9.2861C9.844 9.2861 9.75439 9.30369 9.67399 9.33886C9.59359 9.37236 9.52408 9.42093 9.46545 9.48458C9.4085 9.54656 9.36495 9.61942 9.3348 9.70317C9.30465 9.78692 9.28958 9.8757 9.28958 9.9695C9.28958 10.0583 9.30884 10.1362 9.34737 10.2032C9.38589 10.2685 9.442 10.3196 9.5157 10.3564C9.5894 10.3933 9.67818 10.4117 9.78203 10.4117C9.87248 10.4117 9.95707 10.3958 10.0358 10.364C10.1145 10.3305 10.1857 10.2785 10.2494 10.2082L10.4906 10.4544C10.3984 10.5616 10.2887 10.6395 10.1614 10.6881C10.0358 10.735 9.8976 10.7584 9.74685 10.7584ZM11.1172 10.3263L11.1724 9.85392L12.1724 8.96952H12.6649L11.7378 9.78608L11.4689 10.0147L11.1172 10.3263ZM10.6649 10.7283L11.0167 8.96952H11.4212L11.0694 10.7283H10.6649ZM11.8935 10.7283L11.391 9.96196L11.68 9.6881L12.3508 10.7283H11.8935ZM13.1102 9.67805H13.9569L13.8941 9.99462H13.0474L13.1102 9.67805ZM12.9946 10.4016H13.9544L13.8865 10.7283H12.5248L12.8765 8.96952H14.2056L14.1378 9.29615H13.2157L12.9946 10.4016ZM14.5747 10.7283L14.8586 9.30117H14.2958L14.3636 8.96952H15.8963L15.8284 9.30117H15.2681L14.9817 10.7283H14.5747Z" fill="#EEEEEE"/>
<path d="M6.80902 10.7283L6.655 10.6976L6.61767 10.8853H6.80902V10.7283ZM7.09293 9.30117L7.24694 9.33181L7.28428 9.14414H7.09293V9.30117ZM6.53013 9.30117L6.37628 9.2697L6.33773 9.4582H6.53013V9.30117ZM6.59797 8.96952V8.81249H6.4698L6.44412 8.93805L6.59797 8.96952ZM8.13059 8.96952L8.28444 9.00099L8.32299 8.81249H8.13059V8.96952ZM8.06275 9.30117V9.4582H8.19092L8.2166 9.33264L8.06275 9.30117ZM7.50247 9.30117V9.14414H7.37382L7.34851 9.27027L7.50247 9.30117ZM7.21604 10.7283V10.8853H7.34469L7.37 10.7592L7.21604 10.7283ZM6.96303 10.7589L7.24694 9.33181L6.93892 9.27053L6.655 10.6976L6.96303 10.7589ZM7.09293 9.14414H6.53013V9.4582H7.09293V9.14414ZM6.68398 9.33264L6.75181 9.00099L6.44412 8.93805L6.37628 9.2697L6.68398 9.33264ZM6.59797 9.12655H8.13059V8.81249H6.59797V9.12655ZM7.97675 8.93805L7.90891 9.2697L8.2166 9.33264L8.28444 9.00099L7.97675 8.93805ZM8.06275 9.14414H7.50247V9.4582H8.06275V9.14414ZM7.34851 9.27027L7.06208 10.6974L7.37 10.7592L7.65643 9.33207L7.34851 9.27027ZM7.21604 10.5712H6.80902V10.8853H7.21604V10.5712ZM7.99784 10.7283L7.84386 10.6975L7.80629 10.8853H7.99784V10.7283ZM8.34959 8.96952V8.81249H8.22086L8.19561 8.93873L8.34959 8.96952ZM8.75913 8.96952L8.91311 9.00032L8.95067 8.81249H8.75913V8.96952ZM8.40738 10.7283V10.8853H8.53611L8.56136 10.7591L8.40738 10.7283ZM8.15182 10.7591L8.50357 9.00032L8.19561 8.93873L7.84386 10.6975L8.15182 10.7591ZM8.34959 9.12655H8.75913V8.81249H8.34959V9.12655ZM8.60515 8.93873L8.2534 10.6975L8.56136 10.7591L8.91311 9.00032L8.60515 8.93873ZM8.40738 10.5712H7.99784V10.8853H8.40738V10.5712ZM9.28204 10.6629L9.21108 10.8031L9.21327 10.8041L9.28204 10.6629ZM8.98305 10.3941L8.84892 10.4758L8.84945 10.4766L8.98305 10.3941ZM8.95542 9.57755L8.8104 9.51728L8.80975 9.5189L8.95542 9.57755ZM9.17903 9.24339L9.28908 9.3554L9.2891 9.35538L9.17903 9.24339ZM9.52324 9.01977L9.46492 8.87397L9.46429 8.87423L9.52324 9.01977ZM10.3875 9.01977L10.3238 9.16327V9.16327L10.3875 9.01977ZM10.6614 9.25092L10.761 9.37232L10.8671 9.28529L10.7951 9.1685L10.6614 9.25092ZM10.3674 9.49212L10.2373 9.57998L10.3338 9.72289L10.467 9.61352L10.3674 9.49212ZM10.1941 9.33886L10.2643 9.19841L10.2643 9.19841L10.1941 9.33886ZM9.67399 9.33886L9.7344 9.48383L9.73693 9.48273L9.67399 9.33886ZM9.46545 9.48458L9.34995 9.3782L9.34983 9.37833L9.46545 9.48458ZM9.34737 10.2032L9.21123 10.2814L9.2121 10.2829L9.34737 10.2032ZM10.0358 10.364L10.0947 10.5096L10.0973 10.5085L10.0358 10.364ZM10.2494 10.2082L10.3615 10.0983L10.2448 9.97915L10.1329 10.1028L10.2494 10.2082ZM10.4906 10.4544L10.6096 10.5568L10.7036 10.4475L10.6027 10.3445L10.4906 10.4544ZM10.1614 10.6881L10.2163 10.8352L10.2174 10.8348L10.1614 10.6881ZM9.74685 10.6014C9.58602 10.6014 9.45563 10.5728 9.35082 10.5218L9.21327 10.8041C9.36975 10.8804 9.54924 10.9155 9.74685 10.9155V10.6014ZM9.35299 10.5229C9.24766 10.4695 9.17061 10.3989 9.11666 10.3116L8.84945 10.4766C8.9362 10.6171 9.05847 10.7257 9.21109 10.803L9.35299 10.5229ZM9.11719 10.3125C9.06348 10.2242 9.03456 10.12 9.03456 9.99462H8.7205C8.7205 10.1708 8.76193 10.3328 8.84892 10.4758L9.11719 10.3125ZM9.03456 9.99462C9.03456 9.86418 9.05719 9.74521 9.10109 9.63619L8.80975 9.5189C8.74979 9.66783 8.7205 9.82692 8.7205 9.99462H9.03456ZM9.10042 9.63781C9.14631 9.52739 9.20926 9.43382 9.28908 9.3554L9.06898 9.13137C8.95785 9.24055 8.87172 9.36975 8.81041 9.51728L9.10042 9.63781ZM9.2891 9.35538C9.37087 9.27502 9.46801 9.21157 9.5822 9.16532L9.46429 8.87423C9.31382 8.93518 9.18149 9.0208 9.06896 9.13139L9.2891 9.35538ZM9.58156 9.16557C9.69464 9.12034 9.82357 9.0964 9.97047 9.0964V8.78234C9.78906 8.78234 9.61984 8.81201 9.46492 8.87397L9.58156 9.16557ZM9.97047 9.0964C10.1101 9.0964 10.2267 9.12015 10.3238 9.16327L10.4513 8.87628C10.3071 8.8122 10.1457 8.78234 9.97047 8.78234V9.0964ZM10.3238 9.16327C10.419 9.20559 10.4843 9.2629 10.5277 9.33335L10.7951 9.1685C10.7146 9.03795 10.5973 8.94115 10.4513 8.87628L10.3238 9.16327ZM10.5618 9.12953L10.2678 9.37073L10.467 9.61352L10.761 9.37232L10.5618 9.12953ZM10.4976 9.40427C10.4377 9.31552 10.3595 9.24601 10.2643 9.19841L10.1239 9.47931C10.1693 9.50206 10.2067 9.53473 10.2373 9.57998L10.4976 9.40427ZM10.2643 9.19841C10.1676 9.15007 10.0587 9.12907 9.94283 9.12907V9.44313C10.0212 9.44313 10.0798 9.4573 10.1239 9.47931L10.2643 9.19841ZM9.94283 9.12907C9.82507 9.12907 9.71366 9.1501 9.61105 9.19499L9.73693 9.48273C9.79513 9.45727 9.86293 9.44313 9.94283 9.44313V9.12907ZM9.61359 9.19391C9.5124 9.23607 9.42405 9.29775 9.34995 9.3782L9.58096 9.59097C9.62411 9.54412 9.67478 9.50865 9.73439 9.48381L9.61359 9.19391ZM9.34983 9.37833C9.27795 9.45656 9.22386 9.54773 9.18706 9.64998L9.48255 9.75636C9.50604 9.69111 9.53906 9.63656 9.58108 9.59084L9.34983 9.37833ZM9.18706 9.64998C9.15044 9.7517 9.13255 9.85855 9.13255 9.9695H9.44661C9.44661 9.89285 9.45887 9.82215 9.48255 9.75636L9.18706 9.64998ZM9.13255 9.9695C9.13255 10.0816 9.15709 10.1873 9.21123 10.2814L9.4835 10.1249C9.46059 10.085 9.44661 10.0349 9.44661 9.9695H9.13255ZM9.2121 10.2829C9.26734 10.3766 9.34714 10.4477 9.44548 10.4969L9.58593 10.216C9.53686 10.1914 9.50445 10.1604 9.48263 10.1234L9.2121 10.2829ZM9.44548 10.4969C9.54591 10.5471 9.65998 10.5687 9.78203 10.5687V10.2547C9.69637 10.2547 9.6329 10.2395 9.58593 10.216L9.44548 10.4969ZM9.78203 10.5687C9.89132 10.5687 9.99602 10.5494 10.0946 10.5095L9.97694 10.2184C9.91811 10.2422 9.85364 10.2547 9.78203 10.2547V10.5687ZM10.0973 10.5085C10.1991 10.4651 10.2886 10.3989 10.3658 10.3135L10.1329 10.1028C10.0829 10.1582 10.0299 10.1958 9.9743 10.2195L10.0973 10.5085ZM10.1372 10.3181L10.3784 10.5643L10.6027 10.3445L10.3615 10.0983L10.1372 10.3181ZM10.3715 10.3521C10.2957 10.4402 10.2074 10.5024 10.1054 10.5414L10.2174 10.8348C10.37 10.7765 10.5012 10.683 10.6096 10.5568L10.3715 10.3521ZM10.1065 10.541C10.0005 10.5805 9.88116 10.6014 9.74685 10.6014V10.9155C9.91404 10.9155 10.0711 10.8894 10.2163 10.8352L10.1065 10.541ZM11.1172 10.3263L10.9612 10.308L10.9134 10.7165L11.2213 10.4438L11.1172 10.3263ZM11.1724 9.85392L11.0684 9.7363L11.0234 9.77606L11.0165 9.83567L11.1724 9.85392ZM12.1724 8.96952V8.81249H12.1129L12.0684 8.8519L12.1724 8.96952ZM12.6649 8.96952L12.7687 9.08736L13.0807 8.81249H12.6649V8.96952ZM11.7378 9.78608L11.8395 9.90572L11.8415 9.90393L11.7378 9.78608ZM11.4689 10.0147L11.3672 9.89508L11.3648 9.89717L11.4689 10.0147ZM10.6649 10.7283L10.5109 10.6975L10.4734 10.8853H10.6649V10.7283ZM11.0167 8.96952V8.81249H10.8879L10.8627 8.93873L11.0167 8.96952ZM11.4212 8.96952L11.5752 9.00032L11.6127 8.81249H11.4212V8.96952ZM11.0694 10.7283V10.8853H11.1982L11.2234 10.7591L11.0694 10.7283ZM11.8935 10.7283L11.7622 10.8144L11.8087 10.8853H11.8935V10.7283ZM11.391 9.96196L11.283 9.84799L11.1877 9.93829L11.2597 10.0481L11.391 9.96196ZM11.68 9.6881L11.8119 9.60299L11.7093 9.4439L11.5719 9.57413L11.68 9.6881ZM12.3508 10.7283V10.8853H12.6389L12.4828 10.6432L12.3508 10.7283ZM11.2731 10.3445L11.3284 9.87217L11.0165 9.83567L10.9612 10.308L11.2731 10.3445ZM11.2765 9.97155L12.2764 9.08715L12.0684 8.8519L11.0684 9.7363L11.2765 9.97155ZM12.1724 9.12655H12.6649V8.81249H12.1724V9.12655ZM12.5611 8.85168L11.634 9.66824L11.8415 9.90393L12.7687 9.08736L12.5611 8.85168ZM11.636 9.66646L11.3672 9.8951L11.5706 10.1343L11.8395 9.90571L11.636 9.66646ZM11.3648 9.89717L11.013 10.2087L11.2213 10.4438L11.573 10.1323L11.3648 9.89717ZM10.8189 10.7591L11.1706 9.00032L10.8627 8.93873L10.5109 10.6975L10.8189 10.7591ZM11.0167 9.12655H11.4212V8.81249H11.0167V9.12655ZM11.2672 8.93873L10.9154 10.6975L11.2234 10.7591L11.5752 9.00032L11.2672 8.93873ZM11.0694 10.5712H10.6649V10.8853H11.0694V10.5712ZM12.0248 10.6422L11.5223 9.87585L11.2597 10.0481L11.7622 10.8144L12.0248 10.6422ZM11.4991 10.0759L11.788 9.80207L11.5719 9.57413L11.283 9.84799L11.4991 10.0759ZM11.548 9.77321L12.2188 10.8134L12.4828 10.6432L11.8119 9.60299L11.548 9.77321ZM12.3508 10.5712H11.8935V10.8853H12.3508V10.5712ZM13.1102 9.67805V9.52102H12.9812L12.9561 9.64749L13.1102 9.67805ZM13.9569 9.67805L14.1109 9.70861L14.1481 9.52102H13.9569V9.67805ZM13.8941 9.99462V10.1517H14.023L14.0481 10.0252L13.8941 9.99462ZM13.0474 9.99462L12.8933 9.96406L12.8561 10.1517H13.0474V9.99462ZM12.9946 10.4016L12.8406 10.3709L12.803 10.5587H12.9946V10.4016ZM13.9544 10.4016L14.1081 10.4336L14.1474 10.2446H13.9544V10.4016ZM13.8865 10.7283V10.8853H14.0143L14.0403 10.7602L13.8865 10.7283ZM12.5248 10.7283L12.3708 10.6975L12.3332 10.8853H12.5248V10.7283ZM12.8765 8.96952V8.81249H12.7478L12.7225 8.93873L12.8765 8.96952ZM14.2056 8.96952L14.3594 9.00146L14.3986 8.81249H14.2056V8.96952ZM14.1378 9.29615V9.45318H14.2655L14.2915 9.32808L14.1378 9.29615ZM13.2157 9.29615V9.13912H13.087L13.0617 9.26535L13.2157 9.29615ZM13.1102 9.83508H13.9569V9.52102H13.1102V9.83508ZM13.8028 9.64749L13.74 9.96406L14.0481 10.0252L14.1109 9.70861L13.8028 9.64749ZM13.8941 9.83759H13.0474V10.1517H13.8941V9.83759ZM13.2014 10.0252L13.2642 9.70861L12.9561 9.64749L12.8933 9.96406L13.2014 10.0252ZM12.9946 10.5587H13.9544V10.2446H12.9946V10.5587ZM13.8006 10.3697L13.7328 10.6963L14.0403 10.7602L14.1081 10.4336L13.8006 10.3697ZM13.8865 10.5712H12.5248V10.8853H13.8865V10.5712ZM12.6787 10.7591L13.0305 9.00032L12.7225 8.93873L12.3708 10.6975L12.6787 10.7591ZM12.8765 9.12655H14.2056V8.81249H12.8765V9.12655ZM14.0519 8.93759L13.984 9.26421L14.2915 9.32808L14.3594 9.00146L14.0519 8.93759ZM14.1378 9.13912H13.2157V9.45318H14.1378V9.13912ZM13.0617 9.26535L12.8406 10.3709L13.1486 10.4324L13.3697 9.32694L13.0617 9.26535ZM14.5747 10.7283L14.4207 10.6976L14.3833 10.8853H14.5747V10.7283ZM14.8586 9.30117L15.0126 9.33181L15.05 9.14414H14.8586V9.30117ZM14.2958 9.30117L14.142 9.2697L14.1034 9.4582H14.2958V9.30117ZM14.3636 8.96952V8.81249H14.2355L14.2098 8.93805L14.3636 8.96952ZM15.8963 8.96952L16.0501 9.00099L16.0887 8.81249H15.8963V8.96952ZM15.8284 9.30117V9.4582H15.9566L15.9823 9.33264L15.8284 9.30117ZM15.2681 9.30117V9.14414H15.1395L15.1142 9.27027L15.2681 9.30117ZM14.9817 10.7283V10.8853H15.1104L15.1357 10.7592L14.9817 10.7283ZM14.7287 10.7589L15.0126 9.33181L14.7046 9.27053L14.4207 10.6976L14.7287 10.7589ZM14.8586 9.14414H14.2958V9.4582H14.8586V9.14414ZM14.4497 9.33264L14.5175 9.00099L14.2098 8.93805L14.142 9.2697L14.4497 9.33264ZM14.3636 9.12655H15.8963V8.81249H14.3636V9.12655ZM15.7424 8.93805L15.6746 9.2697L15.9823 9.33264L16.0501 9.00099L15.7424 8.93805ZM15.8284 9.14414H15.2681V9.4582H15.8284V9.14414ZM15.1142 9.27027L14.8278 10.6974L15.1357 10.7592L15.4221 9.33207L15.1142 9.27027ZM14.9817 10.5712H14.5747V10.8853H14.9817V10.5712Z" fill="black" mask="url(#path-7-outside-2_407_8915)"/>
<defs>
<filter id="filter0_d_407_8915" x="0.712227" y="0.757935" width="25.5755" height="16.0652" filterUnits="userSpaceOnUse" color-interpolation-filters="sRGB">
<feFlood flood-opacity="0" result="BackgroundImageFix"/>
<feColorMatrix in="SourceAlpha" type="matrix" values="0 0 0 0 0 0 0 0 0 0 0 0 0 0 0 0 0 0 127 0" result="hardAlpha"/>
<feOffset dy="0.365898"/>
<feGaussianBlur stdDeviation="0.182949"/>
<feComposite in2="hardAlpha" operator="out"/>
<feColorMatrix type="matrix" values="0 0 0 0 0 0 0 0 0 0 0 0 0 0 0 0 0 0 0.25 0"/>
<feBlend mode="normal" in2="BackgroundImageFix" result="effect1_dropShadow_407_8915"/>
<feBlend mode="normal" in="SourceGraphic" in2="effect1_dropShadow_407_8915" result="shape"/>
</filter>
<filter id="filter1_d_407_8915" x="0.58918" y="4.10925" width="24.2865" height="12.9894" filterUnits="userSpaceOnUse" color-interpolation-filters="sRGB">
<feFlood flood-opacity="0" result="BackgroundImageFix"/>
<feColorMatrix in="SourceAlpha" type="matrix" values="0 0 0 0 0 0 0 0 0 0 0 0 0 0 0 0 0 0 127 0" result="hardAlpha"/>
<feOffset dy="0.365898"/>
<feGaussianBlur stdDeviation="0.182949"/>
<feComposite in2="hardAlpha" operator="out"/>
<feColorMatrix type="matrix" values="0 0 0 0 0 0 0 0 0 0 0 0 0 0 0 0 0 0 0.25 0"/>
<feBlend mode="normal" in2="BackgroundImageFix" result="effect1_dropShadow_407_8915"/>
<feBlend mode="normal" in="SourceGraphic" in2="effect1_dropShadow_407_8915" result="shape"/>
</filter>
</defs>
</svg>
