<svg width="75" height="66" viewBox="0 0 75 66" fill="none" xmlns="http://www.w3.org/2000/svg">
<path fill-rule="evenodd" clip-rule="evenodd" d="M42.0394 65.9211C60.243 65.9211 74.9999 51.1641 74.9999 32.9605C74.9999 14.7569 60.243 0 42.0394 0C23.8358 0 9.07888 14.7569 9.07888 32.9605C9.07888 32.9605 9.07888 32.9606 9.07888 32.9606L0 32.9606C1.57895 41.0527 9.00591 51.8756 14.0132 56.4474C21.145 62.9591 31.078 66.3043 41.1334 65.9088C41.4344 65.917 41.7364 65.9211 42.0394 65.9211Z" fill="url(#paint0_linear_388_1047)"/>
<path d="M28.8766 43.295C27.2167 43.295 25.7346 42.8919 24.4304 42.0856C23.1262 41.2794 22.0947 40.1767 21.3359 38.7777C20.5771 37.3786 20.1976 35.7899 20.1976 34.0114C20.1976 32.2329 20.5771 30.656 21.3359 29.2807C22.0947 27.8816 23.1262 26.7908 24.4304 26.0083C25.7346 25.202 27.2167 24.7989 28.8766 24.7989C30.2045 24.7989 31.3664 25.0479 32.3624 25.5459C33.3583 26.0438 34.1646 26.7434 34.7811 27.6445V17.2582H39.334V42.8682H35.2791L34.7811 40.3427C34.212 41.1253 33.4532 41.8129 32.5046 42.4058C31.5798 42.9986 30.3705 43.295 28.8766 43.295ZM29.8369 39.3112C31.3071 39.3112 32.5046 38.8251 33.4295 37.8529C34.378 36.8569 34.8522 35.5883 34.8522 34.047C34.8522 32.5056 34.378 31.2488 33.4295 30.2766C32.5046 29.2807 31.3071 28.7827 29.8369 28.7827C28.3905 28.7827 27.193 29.2688 26.2444 30.241C25.2959 31.2133 24.8217 32.47 24.8217 34.0114C24.8217 35.5527 25.2959 36.8214 26.2444 37.8173C27.193 38.8133 28.3905 39.3112 29.8369 39.3112ZM43.9702 50.6934V25.2258H48.0251L48.5231 27.7512C49.0922 26.9687 49.8392 26.281 50.764 25.6882C51.7125 25.0953 52.9337 24.7989 54.4276 24.7989C56.0875 24.7989 57.5696 25.202 58.8738 26.0083C60.178 26.8145 61.2095 27.9172 61.9683 29.3162C62.7271 30.7153 63.1065 32.3041 63.1065 34.0825C63.1065 35.861 62.7271 37.4498 61.9683 38.8488C61.2095 40.2242 60.178 41.315 58.8738 42.1212C57.5696 42.9037 56.0875 43.295 54.4276 43.295C53.0997 43.295 51.9378 43.046 50.9418 42.548C49.9459 42.0501 49.1396 41.3505 48.5231 40.4494V50.6934H43.9702ZM53.4672 39.3112C54.9137 39.3112 56.1112 38.8251 57.0597 37.8529C58.0083 36.8807 58.4825 35.6239 58.4825 34.0825C58.4825 32.5412 58.0083 31.2725 57.0597 30.2766C56.1112 29.2807 54.9137 28.7827 53.4672 28.7827C51.997 28.7827 50.7877 29.2807 49.8392 30.2766C48.9144 31.2488 48.452 32.5056 48.452 34.047C48.452 35.5883 48.9144 36.8569 49.8392 37.8529C50.7877 38.8251 51.997 39.3112 53.4672 39.3112Z" fill="white"/>
<defs>
<linearGradient id="paint0_linear_388_1047" x1="59.8026" y1="-9.47369" x2="36.8104" y2="72.1232" gradientUnits="userSpaceOnUse">
<stop stop-color="#A103D3"/>
<stop offset="1" stop-color="#5E0E6F"/>
</linearGradient>
</defs>
</svg>
